# xmcd
#
# Track frame offsets:
# 150
# 16874
# 29698
# 46872
# 58721
# 78295
# 92694
# 102968
# 118567
# 133866
# 153365
# 170689
# 183063
# 200777
# 217077
# 236753
# 250484
# 265707
# 280694
# 296869
# 314011
#
# Disc length: 4464 seconds
#
#
# Revision: 0
# Processed by: cddbd v1.5.2PL0 Copyright (c) Steve Scherf et al.
# Submitted via: FreeRIP 2.951 
#
DISCID=37116e15
DTITLE=Hugo Pena e Gabriel - Cd Promocional
DYEAR=2006
DGENRE=Country
TTITLE0=Te amo e não te quero
TTITLE1=Vagabundo
TTITLE2=Festa louca
TTITLE3=Fim de semana
TTITLE4=Faz de conta
TTITLE5=Por enquanto Adeus
TTITLE6=Tadim, tadim
TTITLE7=Recado meu
TTITLE8=Pra lá de Bagdá
TTITLE9=Moda de viola
TTITLE10=Evidência
TTITLE11=Pra te abraçar
TTITLE12=Cigana
TTITLE13=Um beijo
TTITLE14=Do Brasil a Argentina
TTITLE15=Caso marcado
TTITLE16=200 por hora
TTITLE17=Deusa menina
TTITLE18=Com todos menos comigo
TTITLE19=Parece castigo
TTITLE20=Bônus
EXTD=PiratCorp S/A
EXTT0=
EXTT1=
EXTT2=
EXTT3=
EXTT4=
EXTT5=
EXTT6=
EXTT7=
EXTT8=
EXTT9=
EXTT10=
EXTT11=
EXTT12=
EXTT13=
EXTT14=
EXTT15=
EXTT16=
EXTT17=
EXTT18=
EXTT19=
EXTT20=
PLAYORDER=
